<svg id="Layer_1" viewBox="0 0 64 64" xmlns="http://www.w3.org/2000/svg" data-name="Layer 1"><path d="m54 37.48v-14.48h-20v36h20v-2.24c-3.45-.87-6-3.89-6-7.47 0-1.12.27-2.67.78-4.29h-2.78v-6h4v2.99c1-1.97 2.35-3.71 4-4.51zm-12 7.52h-4v-6h4zm0-10h-4v-6h4zm4 0v-6h4v6z"/><path d="m4 7v52h28v-52zm8 42h-4v-6h4zm0-10h-4v-6h4zm0-10h-4v-6h4zm0-10h-4v-6h4zm8 30h-4v-6h4zm0-10h-4v-6h4zm0-10h-4v-6h4zm0-10h-4v-6h4zm8 30h-4v-6h4zm0-10h-4v-6h4zm0-10h-4v-6h4zm0-10h-4v-6h4z"/><path d="m8 3h20v3h-20z"/><path d="m63 61h-62c-.55 0-1-.45-1-1s.45-1 1-1h62c.55 0 1 .45 1 1s-.45 1-1 1z"/><path d="m56 60c-.55 0-1-.45-1-1v-5c0-.55.45-1 1-1s1 .45 1 1v5c0 .55-.45 1-1 1z"/><path d="m62 49.29c0 3.16-2.69 5.71-6 5.71s-6-2.56-6-5.71 2.69-10.29 6-10.29 6 7.13 6 10.29z"/></svg>