<svg id="&#x421;&#x43B;&#x43E;&#x439;_1" enable-background="new 0 0 16 16" viewBox="0 0 16 16" xmlns="http://www.w3.org/2000/svg"><path d="m15.5 6.125h-9c-.3447266 0-.625-.2802734-.625-.625v-1c0-.6625977 2.5810547-1.625 6.625-1.625.7583008 0 1.375-.6166992 1.375-1.375v-1c0-.2070313-.1679688-.375-.375-.375-4.9951172 0-13.375.4384766-13.375 3.375v12c0 .2070313.1679688.375.375.375h5c.2070313 0 .375-.1679688.375-.375v-1c0-2.4547119 2.5474243-4.4631348 5.75-4.6106567v1.1106567c0 .2070313.1679688.375.375.375h2.5c.2070313 0 .375-.1679688.375-.375v-1.1835327c.5753174-.1644287 1-.6890259 1-1.3164673v-2c0-.2070312-.1679687-.375-.375-.375zm-2.375-5.2490234v.6240234c0 .3447266-.2802734.625-.625.625-3.6650391 0-7.375.815918-7.375 2.375v.625h-4.25v-1.625c0-1.5683594 4.7949219-2.5908203 12.25-2.6240234zm-.75 9.7490234v-.75h1.75v.75zm2.75-2.125c0 .3447266-.2802734.625-.625.625h-2.5c-3.7910156 0-6.875 2.4111328-6.875 5.375v.625h-4.25v-9.25h4.3085327c.1644287.5753174.6890259 1 1.3164673 1h8.625z" fill="rgb(0,0,0)"/></svg>