<svg id="Layer_1" enable-background="new 0 0 16 16" height="16" viewBox="0 0 16 16" width="16" xmlns="http://www.w3.org/2000/svg"><g><path d="m5 10h3v-4h3v4h3v-4h2l-2-1.846v-3.154h-2v1.308l-2.5-2.308-6.5 6h2z"/><path d="m0 11h2v4h-2z"/><path d="m14 14h-4c-.143 0-.399-.106-.5-.207l-1.319-1.319 2.417-.483c.253-.051.425-.284.4-.539-.025-.257-.241-.452-.498-.452h-7.5v3h2v-.023l1.795 1.571c.3.262.807.452 1.205.452h2c.314 0 .8-.06 1.106-.136l3.029-.758c.521-.13.598-.415.571-.632s-.17-.474-.706-.474z"/></g></svg>