<svg height="512" viewBox="0 0 128 128" width="512" xmlns="http://www.w3.org/2000/svg"><path d="m114.87 68.62-4-3.37v-23.04h4zm10.97-33.2-6.51-15.21a2.014 2.014 0 0 0 -1.84-1.21h-9.24a1.99 1.99 0 0 0 -1.83 1.21l-6.51 15.21a2.003 2.003 0 0 0 1.84 2.79h22.25a2.003 2.003 0 0 0 1.84-2.79zm-93.54 23.18v-2.14a5.373 5.373 0 0 1 5.36-5.36h12.69a5.367 5.367 0 0 1 5.36 5.36v2.14h8.58v-2.14a5.367 5.367 0 0 1 5.36-5.36h12.69a5.373 5.373 0 0 1 5.36 5.36v2.14h10.3v-10.46a11.045 11.045 0 0 0 -11.03-11.03h-53.94a11.045 11.045 0 0 0 -11.03 11.03v10.46zm78.21 16.8h6.22l-1.86-1.56-4-3.36-9.38-7.88h-82.98l-15.24 12.8zm-99.51 26.89h-4v4.71a2.006 2.006 0 0 0 2 2h9.74a2.006 2.006 0 0 0 2-2v-4.71zm92.26 0h-4v4.71a2.006 2.006 0 0 0 2 2h9.74a2.006 2.006 0 0 0 2-2v-4.71zm-97.26-22.89h-4v16.89a2.006 2.006 0 0 0 2 2h112a2.006 2.006 0 0 0 2-2v-16.89z"/></svg>