<svg id="Layer_1" viewBox="0 0 512 512" xmlns="http://www.w3.org/2000/svg" data-name="Layer 1"><path d="m390.793 400.323 31.44 26.84a4.846 4.846 0 0 1 1.753 3.8v45.917a5 5 0 0 0 7.935 4.049c18.383-13.326 30.3-34.1 30.3-60.125 0-28.542-17.783-55.887-43.407-67.824a4.9 4.9 0 0 1 -2.888-4.531v-184.9a4.9 4.9 0 0 1 2.888-4.531c25.624-11.937 43.407-39.282 43.407-67.824 0-26.024-11.92-46.8-30.3-60.125a5 5 0 0 0 -7.935 4.049v45.916a4.846 4.846 0 0 1 -1.753 3.8l-31.44 26.84a4.969 4.969 0 0 1 -6.492 0l-31.439-26.84a4.844 4.844 0 0 1 -1.754-3.8v-45.917a5 5 0 0 0 -7.934-4.049c-18.384 13.326-30.3 34.1-30.3 60.125 0 28.542 17.783 55.887 43.407 67.824a4.9 4.9 0 0 1 2.889 4.531v184.9a4.9 4.9 0 0 1 -2.889 4.531c-25.624 11.937-43.407 39.282-43.407 67.824 0 26.024 11.92 46.8 30.3 60.125a5 5 0 0 0 7.934-4.049v-45.913a4.844 4.844 0 0 1 1.754-3.8l31.439-26.84a4.969 4.969 0 0 1 6.492 0zm-84.746-274.855c-21.543 1.085-42.862-15.329-42.862-40.518a12.024 12.024 0 0 0 -12.026-12.026h-36.614a12.025 12.025 0 0 0 -12.026 12.026c0 36.053-43.676 54.141-69.168 28.65a12.028 12.028 0 0 0 -17.008 0l-25.891 25.89a12.029 12.029 0 0 0 0 17.009c25.491 25.492 7.4 69.169-28.65 69.169a12.025 12.025 0 0 0 -12.026 12.026v36.613a12.024 12.024 0 0 0 12.024 12.026c36.052 0 54.141 43.677 28.65 69.169a12.028 12.028 0 0 0 0 17.008l25.893 25.89a12.028 12.028 0 0 0 17.008 0c25.524-25.524 69.168-7.447 69.168 28.65a12.025 12.025 0 0 0 12.026 12.026h36.614a12.024 12.024 0 0 0 12.026-12.026c0-25.188 21.319-41.6 42.862-40.518a91.04 91.04 0 0 1 39.119-43.6v-173.87a91.038 91.038 0 0 1 -39.119-43.594zm-73.2 218.5a87.964 87.964 0 1 1 87.969-87.968 87.964 87.964 0 0 1 -87.964 87.964z" fill-rule="evenodd"/></svg>