<svg id="t" height="512" viewBox="0 0 48 48" width="512" xmlns="http://www.w3.org/2000/svg"><path d="m38 32c-3.31 0-6 2.69-6 6s2.69 6 6 6 6-2.69 6-6-2.69-6-6-6zm-2.71 6.71 2 2c.23.23.55.33.87.28s.59-.25.73-.54l2-4c.25-.49.05-1.1-.45-1.34-.49-.25-1.1-.05-1.34.45l-1.38 2.76-1.02-1.02c-.39-.39-1.02-.39-1.41 0s-.39 1.02 0 1.42zm-20.29-21.71h-5c-.55 0-1 .45-1 1s.45 1 1 1h3.73c-.34.64-.63 1.31-.88 2h-4.85c-.55 0-1 .45-1 1s.45 1 1 1h4.3c-.13.65-.22 1.32-.27 2h-7.03c-.55 0-1 .45-1 1s.45 1 1 1h7.03c.05.68.14 1.35.27 2h-4.3c-.55 0-1 .45-1 1s.45 1 1 1h4.85c.25.69.54 1.36.88 2h-3.73c-.55 0-1 .45-1 1s.45 1 1 1h5c2.74 3.64 7.09 6 12 6 1.18 0 2.33-.14 3.43-.4-.28-.82-.43-1.69-.43-2.6 0-.5.05-.98.13-1.45-.99.3-2.04.45-3.13.45-6.07 0-11-4.93-11-11s4.93-11 11-11 11 4.93 11 11c0 1.42-.27 2.79-.77 4.04.25-.02.51-.04.77-.04 1.16 0 2.26.25 3.25.69.49-1.48.75-3.05.75-4.69 0-7.25-5.16-13.31-12-14.7v-1.3h1c1.66 0 3-1.34 3-3s-1.34-3-3-3h-8c-1.66 0-3 1.34-3 3s1.34 3 3 3h1v1.3c-3.66.74-6.83 2.82-9 5.7zm16.04 17.06c.83-1.45 2.09-2.62 3.62-3.33.01-.02.03-.05.04-.07.82-1.36 1.3-2.95 1.3-4.66 0-4.97-4.03-9-9-9s-9 4.03-9 9 4.03 9 9 9c1.4 0 2.72-.32 3.9-.89.04-.02.09-.04.14-.05zm-26.04-5.06c.55 0 1 .45 1 1s-.45 1-1 1-1-.45-1-1 .45-1 1-1zm21-10v7c0 .27.11.52.29.71l3 3c.39.39 1.02.39 1.42 0 .39-.39.39-1.02 0-1.42l-2.71-2.71v-6.59c0-.55-.45-1-1-1s-1 .45-1 1zm-21 2c.55 0 1 .45 1 1s-.45 1-1 1-1-.45-1-1 .45-1 1-1z" fill-rule="evenodd"/></svg>