<svg id="Layer_1" height="512" viewBox="0 0 512 512" width="512" xmlns="http://www.w3.org/2000/svg" data-name="Layer 1"><path d="m376.3 294.2a199.964 199.964 0 0 0 -317.746-235.647 199.988 199.988 0 0 0 235.646 317.747l118.749 118.75a58.057 58.057 0 0 0 82.105-82.1zm-300.776 30.1a175.913 175.913 0 1 1 248.776-248.776 175.913 175.913 0 1 1 -248.776 248.776zm402.556 153.78a34.094 34.094 0 0 1 -48.162 0l-114.759-114.76a203.1 203.1 0 0 0 48.162-48.161l114.76 114.759a34.19 34.19 0 0 1 0 48.162zm-181.894-367.524c-44.3 3.332-72.279-8.108-85.506-34.978a12 12 0 0 0 -21.534 0c-13.225 26.87-41.193 38.315-85.5 34.978a12.009 12.009 0 0 0 -12.746 9.993c-7.818 46.9-.507 92.476 21.145 131.792 19.4 35.232 48.911 62.8 83.091 77.618a11.992 11.992 0 0 0 9.547 0c34.179-14.82 63.688-42.386 83.091-77.618 21.652-39.316 28.963-84.889 21.145-131.792a11.981 11.981 0 0 0 -12.733-9.993zm-96.273 195.2c-50.319-24.3-96.5-86.3-86.821-170.7 39.361.933 68.464-9.833 86.821-32.087 17.629 21.371 45.146 32.144 82.173 32.143q2.3 0 4.649-.056c9.678 84.4-36.502 146.392-86.822 170.696zm51.093-128.566-47.269 60.259a12 12 0 0 1 -8.381 4.551c-.354.031-.708.047-1.06.047a12 12 0 0 1 -7.991-3.047l-36.034-32.163a12 12 0 0 1 15.983-17.9l26.492 23.647 39.377-50.2a12 12 0 0 1 18.883 14.813z"/></svg>