<svg id="Layer_1" enable-background="new 0 0 512 512" viewBox="0 0 512 512" xmlns="http://www.w3.org/2000/svg"><path clip-rule="evenodd" d="m66.34 150.13 15.15 12.09c1.88 1.5 2.69 3.97 2.04 6.29l-5.14 18.7 16.17-10.7c1.02-.66 2.16-.99 3.31-.99 1.14 0 2.33.33 3.31.99l16.21 10.7-5.19-18.7c-.65-2.32.16-4.79 2.04-6.29l15.19-12.09-19.4-.87c-2.41-.1-4.49-1.63-5.35-3.88l-6.82-18.17-6.78 18.17c-.86 2.25-2.98 3.78-5.35 3.88zm92.08 255.12c-14.7-17.96-36.87-28.59-60.02-28.59-42.83 0-77.66 34.84-77.66 77.65v4.31c0 6.61 5.39 11.99 12 11.99h119.27c-2.78-4.21-4.41-9.26-4.41-14.68v-4.95c0-16.43 3.92-31.96 10.82-45.73zm-60.02-70.33c19.19 0 34.87-15.63 34.87-34.85s-15.68-34.85-34.87-34.85c-19.23 0-34.87 15.63-34.87 34.85s15.63 34.85 34.87 34.85zm151.36-20.25c22.58 0 40.95-18.37 40.95-40.95 0-22.59-18.37-40.96-40.95-40.96s-40.95 18.37-40.95 40.96c-.01 22.58 18.37 40.95 40.95 40.95zm90.11 136.31c0-49.7-40.42-90.13-90.12-90.13-49.69 0-90.16 40.43-90.16 90.13v4.95c0 8.1 6.61 14.68 14.7 14.68h150.91c8.08 0 14.66-6.58 14.66-14.68v-4.95zm138.87 3.33c0-42.81-34.83-77.64-77.66-77.64-23.11 0-45.28 10.62-60.02 28.58 6.9 13.77 10.82 29.3 10.82 45.73v4.95c0 5.42-1.63 10.47-4.41 14.68h119.27c6.61 0 12-5.38 12-11.99zm-42.79-154.24c0-19.22-15.64-34.85-34.87-34.85-19.19 0-34.83 15.63-34.83 34.85s15.64 34.85 34.83 34.85c19.23 0 34.87-15.63 34.87-34.85zm-65.86-149.94 15.15 12.09c1.88 1.5 2.69 3.97 2.04 6.29l-5.14 18.7 16.17-10.7c1.02-.66 2.16-.99 3.31-.99 1.14 0 2.33.33 3.31.99l16.21 10.7-5.19-18.7c-.65-2.32.16-4.79 2.04-6.29l15.19-12.09-19.39-.87c-2.41-.1-4.49-1.63-5.35-3.88l-6.82-18.17-6.82 18.17c-.82 2.25-2.94 3.78-5.35 3.88zm-142.38-47.62c1.88 1.5 2.69 3.98 2.04 6.29l-7.84 28.34 24.54-16.2c2-1.33 4.61-1.33 6.61 0l24.54 16.2-7.84-28.34c-.65-2.31.16-4.79 2.04-6.29l22.99-18.32-29.4-1.31c-2.37-.11-4.49-1.64-5.35-3.89l-10.29-27.53-10.33 27.53c-.86 2.25-2.94 3.78-5.35 3.89l-29.4 1.31z" fill-rule="evenodd"/></svg>