<svg id="Capa_1" enable-background="new 0 0 511.843 511.843" height="512" viewBox="0 0 511.843 511.843" width="512" xmlns="http://www.w3.org/2000/svg"><path d="m495.541 255.921c0-18.185-9.493-34.341-25.393-43.218l-17.141-9.57 17.141-9.57c15.9-8.877 25.393-25.034 25.393-43.219s-9.493-34.341-25.393-43.218l-172.627-96.382c-25.659-14.325-57.54-14.326-83.2 0l-172.626 96.382c-15.9 8.877-25.393 25.034-25.393 43.219s9.493 34.341 25.393 43.218l17.141 9.57-17.141 9.57c-15.9 8.877-25.393 25.034-25.393 43.219s9.493 34.341 25.393 43.218l17.141 9.57-17.141 9.57c-15.9 8.877-25.393 25.034-25.393 43.219s9.493 34.341 25.393 43.219l172.626 96.38c12.832 7.164 27.214 10.746 41.601 10.745 14.383-.001 28.77-3.582 41.597-10.744l2.099-1.171c9.645-5.384 13.1-17.566 7.716-27.211-5.383-9.645-17.567-13.099-27.211-7.716l-2.101 1.173c-13.633 7.61-30.568 7.61-44.201 0l-172.627-96.382c-4.256-2.376-4.892-6.216-4.892-8.293s.636-5.917 4.892-8.293l38.668-21.589 114.459 63.905c12.83 7.164 27.215 10.745 41.6 10.745s28.77-3.582 41.6-10.745l114.46-63.905 38.668 21.59c4.256 2.376 4.892 6.216 4.892 8.293s-.636 5.917-4.892 8.293l-83.206 46.456c-9.645 5.384-13.098 17.568-7.713 27.212 3.662 6.559 10.467 10.254 17.48 10.254 3.3 0 6.646-.818 9.731-2.541l83.206-46.455c15.9-8.877 25.393-25.034 25.393-43.219s-9.493-34.341-25.392-43.218l-17.141-9.57 17.141-9.57c15.9-8.879 25.393-25.035 25.393-43.221zm-439.239-105.577c0-2.077.635-5.917 4.892-8.293l172.627-96.381c6.817-3.806 14.458-5.708 22.101-5.708 7.641 0 15.285 1.903 22.1 5.708l172.627 96.381c4.256 2.376 4.892 6.216 4.892 8.293s-.635 5.917-4.892 8.293l-172.627 96.381c-13.632 7.611-30.568 7.611-44.2 0l-172.628-96.38c-4.256-2.377-4.892-6.217-4.892-8.294zm394.346 113.871-172.627 96.381c-13.632 7.61-30.568 7.61-44.2 0l-172.627-96.382c-4.256-2.376-4.892-6.216-4.892-8.293s.635-5.917 4.892-8.293l38.668-21.589 114.459 63.905c12.83 7.164 27.215 10.745 41.6 10.745s28.77-3.582 41.6-10.745l114.459-63.905 38.668 21.59c4.256 2.376 4.892 6.216 4.892 8.293s-.635 5.916-4.892 8.293z"/></svg>