<svg id="Capa_1" enable-background="new 0 0 512 512" height="512" viewBox="0 0 512 512" width="512" xmlns="http://www.w3.org/2000/svg"><g><g><path d="m508.708 291.508c-24.092-20.697-58.312-14.176-76.586 11.846l-45.949 64.868c-11.585 16.496-30.426 26.307-50.521 26.307h-87.788c34.482 0 62.435-19.063 62.435-53.707 0-4.982-4.02-9.021-8.979-9.021h-135.235c-19.116 0-37.45 7.63-50.967 21.21l-111.102 110.604c-2.571 2.559-4.016 6.037-4.016 9.665v25.059c0 7.532 6.106 13.638 13.638 13.638h124.972c3.634 0 7.118-1.451 9.679-4.03l14.093-14.197c10.538-10.583 24.827-16.529 39.727-16.529h141.381c30.408 0 58.85-15.104 75.977-40.348l90.921-133.078c2.678-3.92 1.952-9.23-1.68-12.287z"/></g><g><path d="m349.895 94.302c0-51.985-42.15-94.279-93.96-94.279s-93.96 42.293-93.96 94.279 42.15 94.279 93.96 94.279 93.96-42.293 93.96-94.279zm-48.662-10.698-44.157 42.911c-2.913 2.83-6.685 4.243-10.454 4.243-3.842 0-7.682-1.467-10.608-4.395l-25.533-25.541c-5.857-5.858-5.856-15.356.003-21.213 5.859-5.858 15.356-5.856 21.213.003l15.078 15.082 33.551-32.604c5.94-5.773 15.437-5.638 21.212.304 5.772 5.94 5.636 15.437-.305 21.21z"/><path d="m160.39 173.398-29.835 86.571c-2.215 6.428 2.585 13.117 9.384 13.077l35.689-.213c2.286-.014 4.506.767 6.28 2.209l26.146 21.25c5.318 4.322 13.313 2.038 15.546-4.44l25.322-73.474c-35.564-1.999-67.171-19.09-88.532-44.98z"/><path d="m381.313 259.97-29.835-86.571c-21.36 25.889-52.968 42.981-88.53 44.979l25.322 73.474c2.233 6.478 10.228 8.762 15.546 4.44l26.146-21.25c1.774-1.442 3.994-2.223 6.28-2.209l35.689.213c6.797.041 11.597-6.648 9.382-13.076z"/></g></g></svg>